<svg width="24" height="24" viewBox="0 0 24 24" fill="none" xmlns="http://www.w3.org/2000/svg">
<path fill-rule="evenodd" clip-rule="evenodd" d="M6.57223 17.4278C6.2562 17.1118 6.2562 16.5994 6.57223 16.2834L16.2833 6.57229C16.5993 6.25626 17.1117 6.25626 17.4278 6.57229C17.7438 6.88833 17.7438 7.40072 17.4278 7.71675L7.71669 17.4278C7.40066 17.7439 6.88826 17.7439 6.57223 17.4278Z" fill="#ACB3BA"/>
<path fill-rule="evenodd" clip-rule="evenodd" d="M6.5723 6.57223C6.88834 6.2562 7.40073 6.2562 7.71676 6.57223L17.4278 16.2833C17.7439 16.5993 17.7439 17.1117 17.4278 17.4278C17.1118 17.7438 16.5994 17.7438 16.2834 17.4278L6.5723 7.71669C6.25627 7.40066 6.25627 6.88826 6.5723 6.57223Z" fill="#ACB3BA"/>
</svg>
