<svg width="24" height="24" viewBox="0 0 24 24" fill="none" xmlns="http://www.w3.org/2000/svg">
<g clip-path="url(#clip0_3743_45173)">
<g filter="url(#filter0_ii_3743_45173)">
<path fill-rule="evenodd" clip-rule="evenodd" d="M6.1345 13.1382L15.1707 13.095L15.1963 19.3175C15.2028 20.6775 14.1056 21.7853 12.7456 21.7918L8.63434 21.8114C7.27435 21.8179 6.16659 20.7207 6.1601 19.3607L6.1345 13.1382ZM7.78399 14.772L7.80175 19.3528C7.80391 19.8062 8.17316 20.1719 8.62649 20.1698L12.7378 20.1501C13.1911 20.1479 13.5569 19.7787 13.5547 19.3254L13.5369 14.7445L7.78399 14.772Z" fill="#FBBA59"/>
</g>
<g filter="url(#filter1_f_3743_45173)">
<path fill-rule="evenodd" clip-rule="evenodd" d="M14.9425 14.4526L14.9744 19.2428C14.9813 20.2895 14.1352 21.1391 13.0868 21.1421L8.95641 21.1541C7.90875 21.1571 7.05245 20.3136 7.04548 19.2677L7.01355 14.4756L14.9425 14.4526ZM7.51689 14.9741L7.54547 19.2643C7.55059 20.0331 8.1809 20.6564 8.95496 20.6541L13.0853 20.6421C13.8587 20.6399 14.4795 20.0141 14.4744 19.2461L14.4458 14.9541L7.51689 14.9741Z" fill="url(#paint0_linear_3743_45173)"/>
<path fill-rule="evenodd" clip-rule="evenodd" d="M14.9425 14.4526L14.9744 19.2428C14.9813 20.2895 14.1352 21.1391 13.0868 21.1421L8.95641 21.1541C7.90875 21.1571 7.05245 20.3136 7.04548 19.2677L7.01355 14.4756L14.9425 14.4526ZM7.51689 14.9741L7.54547 19.2643C7.55059 20.0331 8.1809 20.6564 8.95496 20.6541L13.0853 20.6421C13.8587 20.6399 14.4795 20.0141 14.4744 19.2461L14.4458 14.9541L7.51689 14.9741Z" fill="url(#paint1_radial_3743_45173)"/>
</g>
<path d="M18.197 2.67449C19.5593 2.14194 21.0296 3.15018 21.0238 4.61284L20.9745 16.8959C20.9687 18.3526 19.5014 19.3488 18.1453 18.8167L3.97873 13.2578L4.09321 8.18804L18.197 2.67449Z" fill="url(#paint2_radial_3743_45173)"/>
<path d="M18.197 2.67449C19.5593 2.14194 21.0296 3.15018 21.0238 4.61284L20.9745 16.8959C20.9687 18.3526 19.5014 19.3488 18.1453 18.8167L3.97873 13.2578L4.09321 8.18804L18.197 2.67449Z" fill="url(#paint3_linear_3743_45173)"/>
<path d="M18.197 2.67449C19.5593 2.14194 21.0296 3.15018 21.0238 4.61284L20.9745 16.8959C20.9687 18.3526 19.5014 19.3488 18.1453 18.8167L3.97873 13.2578L4.09321 8.18804L18.197 2.67449Z" fill="url(#paint4_radial_3743_45173)"/>
<path d="M18.197 2.67449C19.5593 2.14194 21.0296 3.15018 21.0238 4.61284L20.9745 16.8959C20.9687 18.3526 19.5014 19.3488 18.1453 18.8167L3.97873 13.2578L4.09321 8.18804L18.197 2.67449Z" fill="url(#paint5_radial_3743_45173)"/>
<path d="M18.197 2.67449C19.5593 2.14194 21.0296 3.15018 21.0238 4.61284L20.9745 16.8959C20.9687 18.3526 19.5014 19.3488 18.1453 18.8167L3.97873 13.2578L4.09321 8.18804L18.197 2.67449Z" fill="url(#paint6_linear_3743_45173)"/>
<path d="M3.25 6.75C4.07843 6.75 4.75 7.42157 4.75 8.25L4.75 13.5C4.75 14.3284 4.07843 15 3.25 15C2.42157 15 1.75 14.3284 1.75 13.5L1.75 8.25C1.75 7.42157 2.42157 6.75 3.25 6.75Z" fill="#FAA72C"/>
<path d="M3.25 6.75C4.07843 6.75 4.75 7.42157 4.75 8.25L4.75 13.5C4.75 14.3284 4.07843 15 3.25 15C2.42157 15 1.75 14.3284 1.75 13.5L1.75 8.25C1.75 7.42157 2.42157 6.75 3.25 6.75Z" fill="url(#paint7_radial_3743_45173)"/>
<path d="M3.25 6.75C4.07843 6.75 4.75 7.42157 4.75 8.25L4.75 13.5C4.75 14.3284 4.07843 15 3.25 15C2.42157 15 1.75 14.3284 1.75 13.5L1.75 8.25C1.75 7.42157 2.42157 6.75 3.25 6.75Z" fill="url(#paint8_linear_3743_45173)"/>
<path d="M3.25 6.75C4.07843 6.75 4.75 7.42157 4.75 8.25L4.75 13.5C4.75 14.3284 4.07843 15 3.25 15C2.42157 15 1.75 14.3284 1.75 13.5L1.75 8.25C1.75 7.42157 2.42157 6.75 3.25 6.75Z" fill="url(#paint9_radial_3743_45173)"/>
<path d="M3.25 6.75C4.07843 6.75 4.75 7.42157 4.75 8.25L4.75 13.5C4.75 14.3284 4.07843 15 3.25 15C2.42157 15 1.75 14.3284 1.75 13.5L1.75 8.25C1.75 7.42157 2.42157 6.75 3.25 6.75Z" fill="url(#paint10_radial_3743_45173)"/>
</g>
<defs>
<filter id="filter0_ii_3743_45173" x="6.13452" y="12.5952" width="9.56177" height="9.21631" filterUnits="userSpaceOnUse" color-interpolation-filters="sRGB">
<feFlood flood-opacity="0" result="BackgroundImageFix"/>
<feBlend mode="normal" in="SourceGraphic" in2="BackgroundImageFix" result="shape"/>
<feColorMatrix in="SourceAlpha" type="matrix" values="0 0 0 0 0 0 0 0 0 0 0 0 0 0 0 0 0 0 127 0" result="hardAlpha"/>
<feOffset dx="0.5" dy="-0.5"/>
<feGaussianBlur stdDeviation="0.375"/>
<feComposite in2="hardAlpha" operator="arithmetic" k2="-1" k3="1"/>
<feColorMatrix type="matrix" values="0 0 0 0 0.972549 0 0 0 0 0.6 0 0 0 0 0.231373 0 0 0 1 0"/>
<feBlend mode="normal" in2="shape" result="effect1_innerShadow_3743_45173"/>
<feColorMatrix in="SourceAlpha" type="matrix" values="0 0 0 0 0 0 0 0 0 0 0 0 0 0 0 0 0 0 127 0" result="hardAlpha"/>
<feOffset dx="0.3"/>
<feGaussianBlur stdDeviation="0.25"/>
<feComposite in2="hardAlpha" operator="arithmetic" k2="-1" k3="1"/>
<feColorMatrix type="matrix" values="0 0 0 0 0.831373 0 0 0 0 0.54902 0 0 0 0 0.254902 0 0 0 1 0"/>
<feBlend mode="normal" in2="effect1_innerShadow_3743_45173" result="effect2_innerShadow_3743_45173"/>
</filter>
<filter id="filter1_f_3743_45173" x="6.51367" y="13.9526" width="8.96069" height="7.70166" filterUnits="userSpaceOnUse" color-interpolation-filters="sRGB">
<feFlood flood-opacity="0" result="BackgroundImageFix"/>
<feBlend mode="normal" in="SourceGraphic" in2="BackgroundImageFix" result="shape"/>
<feGaussianBlur stdDeviation="0.25" result="effect1_foregroundBlur_3743_45173"/>
</filter>
<linearGradient id="paint0_linear_3743_45173" x1="15.3576" y1="19.6122" x2="11.6685" y2="20.033" gradientUnits="userSpaceOnUse">
<stop stop-color="#FFEA7B"/>
<stop offset="1" stop-color="#FFEA7B" stop-opacity="0"/>
</linearGradient>
<radialGradient id="paint1_radial_3743_45173" cx="0" cy="0" r="1" gradientUnits="userSpaceOnUse" gradientTransform="translate(8.08004 18.0421) rotate(174.903) scale(2.07784 2.44221)">
<stop stop-color="#FFEA7B"/>
<stop offset="1" stop-color="#FFEA7B" stop-opacity="0"/>
</radialGradient>
<radialGradient id="paint2_radial_3743_45173" cx="0" cy="0" r="1" gradientUnits="userSpaceOnUse" gradientTransform="translate(5.56507 12.5546) rotate(12.8174) scale(12.6796 4.76978)">
<stop stop-color="#FFDB7D"/>
<stop offset="1" stop-color="#FFCE4F"/>
</radialGradient>
<linearGradient id="paint3_linear_3743_45173" x1="9.03213" y1="4.50838" x2="10.1415" y2="12.512" gradientUnits="userSpaceOnUse">
<stop offset="0.210788" stop-color="#F4A241"/>
<stop offset="1" stop-color="#FFCA63"/>
</linearGradient>
<radialGradient id="paint4_radial_3743_45173" cx="0" cy="0" r="1" gradientUnits="userSpaceOnUse" gradientTransform="translate(20.0875 12.5546) rotate(-176.76) scale(1.7363 7.04602)">
<stop stop-color="#FFE99D"/>
<stop offset="1" stop-color="#F9B93E" stop-opacity="0"/>
</radialGradient>
<radialGradient id="paint5_radial_3743_45173" cx="0" cy="0" r="1" gradientUnits="userSpaceOnUse" gradientTransform="translate(20.5892 4.91202) rotate(-176.679) scale(1.32168 5.85944)">
<stop stop-color="#FFD15C"/>
<stop offset="1" stop-color="#F2A736" stop-opacity="0"/>
</radialGradient>
<linearGradient id="paint6_linear_3743_45173" x1="12.3684" y1="16.872" x2="12.9244" y2="15.3675" gradientUnits="userSpaceOnUse">
<stop offset="0.15625" stop-color="#DE9F40"/>
<stop offset="1" stop-color="#F8A85F" stop-opacity="0"/>
</linearGradient>
<radialGradient id="paint7_radial_3743_45173" cx="0" cy="0" r="1" gradientUnits="userSpaceOnUse" gradientTransform="translate(1.95 14.4411) rotate(-87.7724) scale(5.65999 1.90299)">
<stop stop-color="#F79F6D"/>
<stop offset="1" stop-color="#F79F6D" stop-opacity="0"/>
</radialGradient>
<linearGradient id="paint8_linear_3743_45173" x1="1.43" y1="8.60187" x2="4.2959" y2="11.4683" gradientUnits="userSpaceOnUse">
<stop stop-color="#FF8E0C"/>
<stop offset="1" stop-color="#FFE68B" stop-opacity="0"/>
</linearGradient>
<radialGradient id="paint9_radial_3743_45173" cx="0" cy="0" r="1" gradientUnits="userSpaceOnUse" gradientTransform="translate(3.97 11.1878) rotate(-176.863) scale(1.02904 2.83357)">
<stop stop-color="#FCCA73"/>
<stop offset="1" stop-color="#FBB950" stop-opacity="0"/>
</radialGradient>
<radialGradient id="paint10_radial_3743_45173" cx="0" cy="0" r="1" gradientUnits="userSpaceOnUse" gradientTransform="translate(5.29 12.389) rotate(167.595) scale(4.1161 12.279)">
<stop offset="0.514742" stop-color="#E28669" stop-opacity="0"/>
<stop offset="0.940338" stop-color="#B74E14"/>
</radialGradient>
<clipPath id="clip0_3743_45173">
<rect width="24" height="24" fill="white" transform="matrix(-1 0 0 1 24 0)"/>
</clipPath>
</defs>
</svg>
