<svg xmlns="http://www.w3.org/2000/svg" width="128" height="25" viewBox="0 0 128 25" fill="none">
  <g clip-path="url(#clip0_3602_51538)">
    <path d="M1.07332 18.5554L7.11072 13.6606V23.9341H1.07332V18.5554ZM1.07332 6.4446V1.06592H7.11072V11.3394L1.07332 6.4446ZM8.54416 12.5035L22.6526 1.06592H28.803V23.9341H22.6526L8.54416 12.5035ZM22.2642 0L8.1911 11.4095V0H0V6.94951L6.84945 12.4965L0 18.0505V25H8.1911V13.5835L22.2713 25H29.8763V0H22.2713H22.2642Z" fill="#221E1F"/>
    <path d="M46.9223 11.5288L42.7279 7.30717H40.4682V11.087H38.8088V1.9916H40.4682V5.74335H42.7843L46.9081 1.5498L48.0803 2.69987L44.2602 6.52175L48.1086 10.3296L46.9223 11.5288Z" fill="#221E1F"/>
    <path d="M63.1914 1.99158V10.1473L61.4684 11.4656L57.5424 7.29312L53.6092 11.4656L51.9004 10.1473V1.99158H53.5174V8.91304L53.7363 9.08134L57.5424 4.97895L61.3766 9.06731L61.5744 8.91304V1.99158H63.1914Z" fill="#221E1F"/>
    <path d="M74.7297 11.087V8.48529H69.0029V11.087H67.3577V5.44181L70.966 1.81628H72.7949L76.3749 5.44181V11.087H74.7297ZM71.8698 3.18375L69.01 5.96776V7.03367H74.7367V5.98178L71.8769 3.18375H71.8698Z" fill="#221E1F"/>
    <path d="M103.54 3.52735H97.4882L96.2595 4.76158V8.31698L97.5729 9.62132H102.17V7.44741H99.1758V6.00982H103.787V11.087H96.7185L94.5154 8.89902V4.20758L96.7326 2.00562H103.54V3.52735Z" fill="#221E1F"/>
    <path d="M107.875 1.61993L111.794 5.63115L115.72 1.61993L116.892 2.79104L112.599 7.07575V11.087H110.94V7.0477L106.675 2.80507L107.875 1.61993Z" fill="#221E1F"/>
    <path d="M120.628 5.96776L123.488 3.18375L126.348 5.98178V7.03367H120.621V5.96776H120.628ZM122.591 1.81628L118.983 5.44181V11.087H120.628V8.48529H126.355V11.087H128V5.44181L124.42 1.81628H122.591Z" fill="#221E1F"/>
    <path d="M90.4268 1.99158V10.6942L88.9156 11.5077L82.2145 4.39691V11.0869H80.6116V1.99158H82.3769L88.8238 8.89901V1.99158H90.4268Z" fill="#221E1F"/>
    <path d="M39.0278 18.6606L39.974 19.6774L41.9018 17.9663V23.4572H39.3597V24.972H45.3547V23.4572H43.4835V16.8864L42.2831 15.7433L39.0278 18.6606Z" fill="#221E1F"/>
    <path d="M48.6804 18.6606L49.6266 19.6774L51.5544 17.9663V23.4572H49.0123V24.972H55.0073V23.4572H53.1361V16.8864L51.9357 15.7433L48.6804 18.6606Z" fill="#221E1F"/>
    <path d="M59.7313 18.885V17.812L60.4163 17.1318H64.1305L65.0202 18.0435V18.6395L64.1023 19.5442H60.4092L59.7243 18.878L59.7313 18.885ZM59.7172 15.7153L58.1284 17.2861V19.439L59.689 20.9677H64.4977L65.0202 20.4558V22.5175L63.9822 23.5484H60.268L59.35 22.6297L58.2414 23.7307L59.4842 24.9789H64.653L66.5667 23.0645V17.4544L64.8296 15.7223H59.7172V15.7153Z" fill="#221E1F"/>
  </g>
  <defs>
    <clipPath id="clip0_3602_51538">
      <rect width="128" height="25" fill="white"/>
    </clipPath>
  </defs>
</svg>
