<svg width="25" height="24" viewBox="0 0 25 24" fill="none" xmlns="http://www.w3.org/2000/svg">
<path fill-rule="evenodd" clip-rule="evenodd" d="M14.8203 4.6481C15.4913 3.97702 16.4015 3.60001 17.3506 3.60001C18.2996 3.60001 19.2098 3.97702 19.8809 4.6481C20.552 5.31919 20.929 6.22938 20.929 7.17843C20.929 8.12749 20.552 9.03768 19.8809 9.70876L9.38092 20.2088C9.24026 20.3494 9.0495 20.4284 8.85059 20.4284H4.85059C4.43637 20.4284 4.10059 20.0926 4.10059 19.6784V15.6784C4.10059 15.4795 4.1796 15.2888 4.32026 15.1481L14.8203 4.6481ZM17.3506 5.10001C16.7994 5.10001 16.2707 5.31898 15.8809 5.70876L5.60059 15.9891V18.9284H8.53993L18.8203 8.6481C19.21 8.25832 19.429 7.72967 19.429 7.17843C19.429 6.6272 19.21 6.09854 18.8203 5.70876C18.4305 5.31898 17.9018 5.10001 17.3506 5.10001Z" fill="#222529"/>
<path fill-rule="evenodd" clip-rule="evenodd" d="M13.8203 5.64805C14.1131 5.35515 14.588 5.35515 14.8809 5.64805L18.8809 9.64805C19.1738 9.94094 19.1738 10.4158 18.8809 10.7087C18.588 11.0016 18.1131 11.0016 17.8203 10.7087L13.8203 6.70871C13.5274 6.41581 13.5274 5.94094 13.8203 5.64805Z" fill="#222529"/>
</svg>
