<svg width="25" height="24" viewBox="0 0 25 24" fill="none" xmlns="http://www.w3.org/2000/svg">
<path fill-rule="evenodd" clip-rule="evenodd" d="M9.14124 4.14124C10.032 3.25044 11.2402 2.75 12.5 2.75C13.7598 2.75 14.968 3.25044 15.8588 4.14124C16.7496 5.03204 17.25 6.24022 17.25 7.5C17.25 8.75978 16.7496 9.96796 15.8588 10.8588C14.968 11.7496 13.7598 12.25 12.5 12.25C11.2402 12.25 10.032 11.7496 9.14124 10.8588C8.25044 9.96796 7.75 8.75978 7.75 7.5C7.75 6.24022 8.25044 5.03204 9.14124 4.14124ZM12.5 4.25C11.638 4.25 10.8114 4.59241 10.2019 5.2019C9.59241 5.8114 9.25 6.63805 9.25 7.5C9.25 8.36195 9.59241 9.1886 10.2019 9.7981C10.8114 10.4076 11.638 10.75 12.5 10.75C13.362 10.75 14.1886 10.4076 14.7981 9.7981C15.4076 9.1886 15.75 8.36195 15.75 7.5C15.75 6.63805 15.4076 5.8114 14.7981 5.2019C14.1886 4.59241 13.362 4.25 12.5 4.25Z" fill="#ACB3BA"/>
<path fill-rule="evenodd" clip-rule="evenodd" d="M4.27268 20.7147C3.87794 20.5892 3.6597 20.1675 3.78522 19.7727C4.30137 18.1496 5.46161 16.7465 7.03884 15.7607C8.61533 14.7754 10.5365 14.25 12.5 14.25C14.4634 14.25 16.3846 14.7754 17.9611 15.7607C19.5383 16.7465 20.6985 18.1496 21.2147 19.7727C21.3402 20.1675 21.122 20.5892 20.7272 20.7147C20.3325 20.8403 19.9107 20.622 19.7852 20.2273C19.3917 18.9899 18.4858 17.8575 17.1661 17.0327C15.8456 16.2074 14.2038 15.75 12.5 15.75C10.7961 15.75 9.15432 16.2074 7.83384 17.0327C6.5141 17.8575 5.60818 18.9899 5.21469 20.2273C5.08917 20.622 4.66742 20.8403 4.27268 20.7147Z" fill="#ACB3BA"/>
</svg>
