<svg width="20" height="20" viewBox="0 0 20 20" fill="none" xmlns="http://www.w3.org/2000/svg">
<path fill-rule="evenodd" clip-rule="evenodd" d="M16.4194 7.43445C16.7483 7.10548 16.7483 6.5721 16.4194 6.24313C16.0904 5.91416 15.557 5.91416 15.228 6.24313L9.08486 12.3863L5.18805 8.48951C4.85908 8.16053 4.3257 8.16053 3.99673 8.48951C3.66776 8.81848 3.66776 9.35185 3.99673 9.68083L8.47065 14.1547C8.47662 14.1611 8.48271 14.1674 8.48892 14.1736C8.65412 14.3388 8.87087 14.421 9.08739 14.4203C9.30223 14.4197 9.51689 14.3375 9.68081 14.1736C9.687 14.1674 9.69308 14.1611 9.69905 14.1548L16.4194 7.43445Z" fill="white"/>
</svg>
